<svg width="90" height="35" viewBox="0 0 90 35" fill="none" xmlns="http://www.w3.org/2000/svg">
<circle cx="20.5" cy="7.5" r="7.5" fill="#906CAD"/>
<circle cx="7.5" cy="22.5" r="7.5" fill="#93F8FF"/>
<path d="M29.26 30V17.556H31.564C32.028 17.556 32.332 17.764 32.476 18.18L32.68 18.852C32.888 18.636 33.104 18.44 33.328 18.264C33.552 18.08 33.792 17.924 34.048 17.796C34.312 17.66 34.592 17.556 34.888 17.484C35.192 17.404 35.524 17.364 35.884 17.364C36.636 17.364 37.256 17.56 37.744 17.952C38.24 18.336 38.616 18.852 38.872 19.5C39.08 19.116 39.332 18.788 39.628 18.516C39.932 18.244 40.256 18.024 40.6 17.856C40.952 17.688 41.32 17.564 41.704 17.484C42.096 17.404 42.484 17.364 42.868 17.364C43.58 17.364 44.212 17.472 44.764 17.688C45.316 17.896 45.776 18.204 46.144 18.612C46.52 19.012 46.804 19.508 46.996 20.1C47.188 20.684 47.284 21.348 47.284 22.092V30H43.564V22.092C43.564 20.804 43.012 20.16 41.908 20.16C41.404 20.16 40.984 20.328 40.648 20.664C40.32 20.992 40.156 21.468 40.156 22.092V30H36.436V22.092C36.436 21.38 36.296 20.88 36.016 20.592C35.736 20.304 35.324 20.16 34.78 20.16C34.444 20.16 34.124 20.236 33.82 20.388C33.524 20.54 33.244 20.744 32.98 21V30H29.26ZM59.5741 22.284C59.5741 21.988 59.5341 21.7 59.4541 21.42C59.3821 21.14 59.2581 20.892 59.0821 20.676C58.9141 20.452 58.6901 20.272 58.4101 20.136C58.1301 20 57.7901 19.932 57.3901 19.932C56.6861 19.932 56.1341 20.136 55.7341 20.544C55.3341 20.944 55.0701 21.524 54.9421 22.284H59.5741ZM54.8941 24.444C55.0141 25.484 55.3301 26.24 55.8421 26.712C56.3541 27.176 57.0141 27.408 57.8221 27.408C58.2541 27.408 58.6261 27.356 58.9381 27.252C59.2501 27.148 59.5261 27.032 59.7661 26.904C60.0141 26.776 60.2381 26.66 60.4381 26.556C60.6461 26.452 60.8621 26.4 61.0861 26.4C61.3821 26.4 61.6061 26.508 61.7581 26.724L62.8381 28.056C62.4541 28.496 62.0381 28.856 61.5901 29.136C61.1501 29.408 60.6941 29.624 60.2221 29.784C59.7581 29.936 59.2901 30.04 58.8181 30.096C58.3541 30.16 57.9101 30.192 57.4861 30.192C56.6141 30.192 55.7941 30.052 55.0261 29.772C54.2661 29.484 53.5981 29.06 53.0221 28.5C52.4541 27.94 52.0021 27.244 51.6661 26.412C51.3381 25.58 51.1741 24.612 51.1741 23.508C51.1741 22.676 51.3141 21.888 51.5941 21.144C51.8821 20.4 52.2901 19.748 52.8181 19.188C53.3541 18.628 53.9981 18.184 54.7501 17.856C55.5101 17.528 56.3661 17.364 57.3181 17.364C58.1421 17.364 58.8941 17.492 59.5741 17.748C60.2621 18.004 60.8501 18.376 61.3381 18.864C61.8341 19.352 62.2181 19.952 62.4901 20.664C62.7701 21.368 62.9101 22.168 62.9101 23.064C62.9101 23.344 62.8981 23.572 62.8741 23.748C62.8501 23.924 62.8061 24.064 62.7421 24.168C62.6781 24.272 62.5901 24.344 62.4781 24.384C62.3741 24.424 62.2381 24.444 62.0701 24.444H54.8941ZM74.6716 22.284C74.6716 21.988 74.6316 21.7 74.5516 21.42C74.4796 21.14 74.3556 20.892 74.1796 20.676C74.0116 20.452 73.7876 20.272 73.5076 20.136C73.2276 20 72.8876 19.932 72.4876 19.932C71.7836 19.932 71.2316 20.136 70.8316 20.544C70.4316 20.944 70.1676 21.524 70.0396 22.284H74.6716ZM69.9916 24.444C70.1116 25.484 70.4276 26.24 70.9396 26.712C71.4516 27.176 72.1116 27.408 72.9196 27.408C73.3516 27.408 73.7236 27.356 74.0356 27.252C74.3476 27.148 74.6236 27.032 74.8636 26.904C75.1116 26.776 75.3356 26.66 75.5356 26.556C75.7436 26.452 75.9596 26.4 76.1836 26.4C76.4796 26.4 76.7036 26.508 76.8556 26.724L77.9356 28.056C77.5516 28.496 77.1356 28.856 76.6876 29.136C76.2476 29.408 75.7916 29.624 75.3196 29.784C74.8556 29.936 74.3876 30.04 73.9156 30.096C73.4516 30.16 73.0076 30.192 72.5836 30.192C71.7116 30.192 70.8916 30.052 70.1236 29.772C69.3636 29.484 68.6956 29.06 68.1196 28.5C67.5516 27.94 67.0996 27.244 66.7636 26.412C66.4356 25.58 66.2716 24.612 66.2716 23.508C66.2716 22.676 66.4116 21.888 66.6916 21.144C66.9796 20.4 67.3876 19.748 67.9156 19.188C68.4516 18.628 69.0956 18.184 69.8476 17.856C70.6076 17.528 71.4636 17.364 72.4156 17.364C73.2396 17.364 73.9916 17.492 74.6716 17.748C75.3596 18.004 75.9476 18.376 76.4356 18.864C76.9316 19.352 77.3156 19.952 77.5876 20.664C77.8676 21.368 78.0076 22.168 78.0076 23.064C78.0076 23.344 77.9956 23.572 77.9716 23.748C77.9476 23.924 77.9036 24.064 77.8396 24.168C77.7756 24.272 77.6876 24.344 77.5756 24.384C77.4716 24.424 77.3356 24.444 77.1676 24.444H69.9916ZM86.317 30.192C85.725 30.192 85.201 30.108 84.745 29.94C84.297 29.764 83.917 29.52 83.605 29.208C83.301 28.888 83.069 28.504 82.909 28.056C82.749 27.608 82.669 27.108 82.669 26.556V20.124H81.613C81.421 20.124 81.257 20.064 81.121 19.944C80.985 19.816 80.917 19.632 80.917 19.392V17.94L82.897 17.556L83.629 14.52C83.725 14.136 83.997 13.944 84.445 13.944H86.389V17.58H89.473V20.124H86.389V26.304C86.389 26.592 86.457 26.832 86.593 27.024C86.737 27.208 86.941 27.3 87.205 27.3C87.341 27.3 87.453 27.288 87.541 27.264C87.637 27.232 87.717 27.2 87.781 27.168C87.853 27.128 87.917 27.096 87.973 27.072C88.037 27.04 88.109 27.024 88.189 27.024C88.301 27.024 88.389 27.052 88.453 27.108C88.525 27.156 88.597 27.236 88.669 27.348L89.797 29.112C89.317 29.472 88.777 29.744 88.177 29.928C87.577 30.104 86.957 30.192 86.317 30.192Z" fill="#353854"/>
</svg>
